<?xml version="1.0" encoding="UTF-8"?>
<svg id="Calque_2" data-name="Calque 2" xmlns="http://www.w3.org/2000/svg" viewBox="0 0 1230.41 332.11">
  <defs>
    <style>
      .cls-1 {
        fill: #000;
        stroke-width: 0px;
      }
    </style>
  </defs>
  <g id="Calque_1-2" data-name="Calque 1">
    <g>
      <path class="cls-1" d="M161.34,1.52c-5.05,2.25-6.43,2.72-13.02,4.46-5.09,1.34-12.98,2.76-17.91,3.24-1.26.12-2.49.32-2.64.43-.55.32-.43,90.12.12,90.12.24,0,.99-.39,1.66-.91,4.14-3.12,11.88-6.98,17.01-8.56,11.36-3.47,20.99-3.79,29.95-.99,5.37,1.66,12.59,6.43,15.23,10.14l1.18,1.62v25.33l1.89,2.33c1.03,1.3,2.76,3.47,3.83,4.81,1.1,1.38,3.79,4.73,6.04,7.46,2.33,2.92,4.02,5.37,4.02,5.84,0,1.42-.83,5.96-1.1,6.27-.16.16-4.34-4.54-9.35-10.38-7.58-8.88-9.23-10.61-10.1-10.61-.55,0-2.25.47-3.75,1.03s-3.28,1.14-3.95,1.34c-.71.16-1.46.43-1.74.59s-1.03.43-1.74.59c-.67.2-2.21.71-3.39,1.18-1.18.43-4.22,1.54-6.71,2.37-7.14,2.45-15.43,5.37-17.36,6.08-.99.39-2.29.83-2.96,1.03-.63.16-2.25.71-3.55,1.18-1.3.43-2.88.99-3.55,1.18-3.55,1.07-11.32,3.87-11.64,4.18-.28.28-.36,11.09-.32,30.15l.12,29.75.99.47c.95.43,2.72.95,5.92,1.7.75.2,2.8.75,4.54,1.22,1.74.47,3.79,1.03,4.54,1.22.75.16,3.16.79,5.33,1.34s5.01,1.3,6.31,1.66c1.3.32,3.16.83,4.14,1.1,3.35.95,6.79,1.85,13.42,3.59,1.42.36,3.35.87,4.34,1.14s2.92.79,4.34,1.18c4.14,1.07,6.87,1.93,7.26,2.25.36.28.04,3.63-1.54,16.1-.32,2.49-.59,5.17-.59,5.92s-.24,3.51-.59,6.12c-.32,2.6-.87,7.22-1.18,10.26-.36,3.04-.91,7.26-1.18,9.35-.32,2.09-.59,4.5-.59,5.33,0,2.53-.67,4.1-2.64,6-1.07,1.03-4.18,4.22-6.98,7.14-15.11,15.9-19.49,19.89-23.12,21.27-4.85,1.78-6.51,2.05-14.32,2.29-5.45.16-7.89.39-8.17.71s-.36,2.72-.32,6.16l.12,5.68h7.3c7.26,0,12.35-.51,16.57-1.66,3.55-.95,8.52-3.63,11.56-6.23,2.68-2.29,22.69-22.89,26.91-27.66.24-.28,2.17-2.29,4.38-4.54,4.66-4.81,8.13-8.88,9.11-10.69.91-1.74,2.09-5.41,2.09-6.63,0-.55.28-2.76.59-4.93.87-5.84,1.78-14.01,1.78-15.59,0-.75.28-3.31.59-5.72.32-2.37.71-5.48.87-6.87l.32-2.56,2.56-.75c1.42-.43,3.12-.99,3.75-1.26.67-.28,1.97-.83,2.96-1.22,5.45-2.21,13.85-9.39,17.44-14.95,4.06-6.27,5.37-9.75,6.43-17.36.59-3.99.63-5.41.24-8.88-.63-6.19-1.07-8.84-1.58-9.79-.24-.43-.43-1.1-.43-1.46,0-.95-3.35-7.73-5.13-10.46-.87-1.26-3-3.83-4.77-5.68l-3.24-3.43.24-2.64c.12-1.46.43-4.34.67-6.39.28-2.37.36-6.83.2-12.03-.12-4.89-.08-8.52.12-8.84.47-.67,1.26-.24,1.26.75,0,.87,1.93,4.26,3.67,6.47,1.66,2.09,5.05,4.7,5.48,4.26.24-.24.16-1.78-.24-4.06-1.03-6.04-.87-7.65,2.21-23.24.67-3.39.67-13.73,0-16.77-2.56-11.36-10.97-20.99-20.72-23.71-1.14-.32-3.91-.83-6.19-1.14-3.95-.59-8.33-.43-13.69.43-2.29.36-1.54-.87,1.38-2.21,8.25-3.95,17.44-3.99,25.61-.16,5.29,2.49,10.54,6.71,13.53,10.89.71,1.07,1.46,1.89,1.66,1.89.51,0,.36-2.56-.32-5.25-2.64-10.61-6.94-18.19-14.72-25.96-4.7-4.66-9.27-7.93-15.07-10.69-6.59-3.16-12.35-4.73-19.33-5.33-4.46-.39-14.36,1.7-18.58,3.87-.39.2-1.1.36-1.58.36-.83-.04-.83-.08-.2-.43.36-.2,1.1-.79,1.62-1.26s2.6-1.74,4.62-2.72c10.38-5.25,18.9-5.92,30.26-2.41,1.82.55,3.35.91,3.47.83.24-.28-2.13-2.72-5.37-5.48-6.59-5.64-16.45-10.85-25.65-13.49-6.23-1.82-12.78-2.53-17.16-1.89-3,.43-6.59,1.82-9.94,3.79-2.37,1.42-2.17.43.32-1.78,6.47-5.68,8.88-9.43,9.83-15.39.2-1.18.47-2.56.63-3.08.36-1.22-.51-1.1-4.58.71ZM192.32,169.21c.55.91-3.87,7.58-7.18,10.89-5.25,5.17-11.21,7.65-18.23,7.65-5.37-.04-9.35-1.03-15.03-3.91-1.14-.55-4.46-1.7-6.59-2.25-1.14-.32-.28-1.46,2.45-3.31,5.48-3.71,6.51-4.34,9.08-5.52,7.65-3.59,9.31-3.87,23.36-3.91,7.22-.04,12,.12,12.15.36ZM222.58,175.41c5.96,5.8,8.37,11.25,8.84,20.04.32,6.27-.91,12-3.67,16.77-3,5.29-7.5,9.51-12.63,12.03-3.75,1.82-4.02,1.66-3.16-2.37.39-1.66.67-3.91.67-5.01,0-1.93.08-2.13,1.85-3.63,3.51-3.08,5.68-5.48,6.71-7.46,1.26-2.53,1.85-8.33,1.3-13.38-.32-3.08-.51-3.71-1.74-5.37-.75-1.03-1.82-2.25-2.37-2.72-1.18-1.07-1.18-.87-.43-5.45.32-1.97.59-4.14.59-4.85,0-1.93.91-1.62,4.02,1.38Z"/>
      <path class="cls-1" d="M116.95,11.22c-2.92.36-12,2.13-15.78,3.12-5.45,1.42-7.34,1.97-9.86,2.84-1.5.55-3.28,1.1-3.95,1.3-2.45.63-9.59,3.91-12.82,5.88-.75.43-1.66.95-1.97,1.1-1.46.63-5.56,4.1-8.25,6.91l-2.92,3.08h-3.99c-3.87,0-9.67.75-12.19,1.54-6.63,2.13-9.11,3.16-12.51,5.33-5.56,3.51-10.46,8.8-12.82,13.85-1.3,2.76-2.56,7.89-2.53,10.46,0,2.05,1.18,8.33,1.93,10.06.63,1.54,1.66,3.83,2.92,6.55.55,1.22,1.03,2.41,1.03,2.64,0,.91.87.91,2.17-.08.71-.55,1.5-1.03,1.66-1.03.2,0,.55-.2.83-.47.75-.75,3.2-1.5,7.58-2.33,6.16-1.14,13.1-.47,12.07,1.14-.16.28-.55.47-.91.47-.32,0-1.14.24-1.82.51-.71.32-2.33.87-3.63,1.26-1.3.36-3.59,1.1-5.13,1.66-3.91,1.34-7.1,2.33-10.06,3.08-1.42.36-3.47.91-4.58,1.22s-2.29.55-2.6.55c-1.03,0-6.63,2.41-8.56,3.67-6.63,4.34-10.26,11.32-10.26,19.61s3.63,14.84,10.22,17.32c3.39,1.3,4.06.95,2.17-1.07-.51-.55-1.5-2.05-2.17-3.31-1.18-2.21-1.22-2.49-1.1-6.16.08-2.09.39-4.46.67-5.21.83-2.13,1.93-4.14,2.29-4.14.16,0,.43.87.55,1.97.32,2.76,1.1,7.73,1.78,11.25.32,1.66.55,3.51.55,4.14,0,.67.28,2.6.59,4.34.32,1.74.83,5.25,1.18,7.77,1.3,9.86,1.78,13.65,2.17,17.44l.39,3.87-3.91,4.1c-4.62,4.77-6.83,8.05-9.27,13.65-1.54,3.55-3,11.25-3,15.7,0,3.24,1.18,10.89,2.13,13.93,1.58,5.01,5.41,11.29,9.51,15.63,3.83,4.02,6.55,6.08,11.44,8.48,3,1.5,2.92,1.46,7.3,2.96l2.96,1.03.43,1.97c.28,1.1.51,2.72.51,3.67.04.95.32,3.43.63,5.52.63,4.38,1.46,10.85,2.37,18.82.71,6.12,1.54,10.02,2.53,11.84,1.62,3,4.18,5.96,12.82,14.8,2.64,2.72,6.12,6.35,7.73,8.09,8.76,9.43,19.02,19.81,21.23,21.47,2.96,2.25,6.83,4.22,9.67,4.97,5.05,1.38,12.67,2.21,19.26,2.09l6.47-.12v-55.24l-4.1-.12c-2.49-.08-4.26.04-4.58.32-.28.24-.59,1.66-.71,3.28-.43,5.68-2.41,10.22-6.27,14.24q-2.6,2.72-4.26,2.45c-6-.95-13.89-5.21-18.9-10.18-7.26-7.18-9.9-12.9-10.69-23.2-.51-6.79-.95-8.4-2.56-9.63-.75-.59-1.42-1.03-1.5-1.03-.43,0-7.06-4.66-9.59-6.71-6.67-5.45-10.22-12.82-11.25-23.28-.2-2.05-.51-5.01-.75-6.51-.55-3.95-1.46-11.05-2.13-16.57-.32-2.6-.79-6.23-1.03-8.09-.28-1.85-.59-4.77-.79-6.51s-.51-3.95-.75-4.93-.43-2.68-.43-3.75-.28-3.43-.59-5.21c-.28-1.82-.59-4.73-.63-6.51l-.08-3.28,5.45-8.09c3-4.46,6.27-9.43,7.26-11.05l1.78-2.96.16-19.65.16-19.65,2.21-2.41c2.33-2.49,7.06-6.23,9.75-7.69,6.67-3.55,6.94-3.59,7.42-.91.95,5.48,3.91,12.75,7.06,17.52.87,1.34,2.88,3.63,4.42,5.17,5.84,5.68,11.05,8.37,20.12,10.3,3.55.75,11.01.59,14.05-.36l1.78-.55v-6.23l-2.09-1.07c-4.89-2.45-8.84-6.51-11.25-11.48-1.78-3.59-3.12-9.11-2.96-12.03l.12-2.25,1.38.12c2.01.16,7.89,2.09,12.94,4.26.71.32,1.5.47,1.7.36.2-.16.36-16.3.36-41.08V10.99l-1.07.04c-.63.04-1.62.16-2.29.2ZM28.69,175.96c.28,1.46.47,3.71.47,5.01,0,2.37-.04,2.41-2.13,4.54-2.53,2.53-3,3.75-3.28,9.08-.28,4.46.39,9.15,1.54,11.4,1.07,2.05,3.95,5.21,6.43,7.02l2.05,1.5.24,3.12c.16,1.7.36,4.1.51,5.41q.28,2.29-.67,2.05c-.51-.16-2.29-.95-3.91-1.74-4.46-2.17-9.59-7.38-11.84-12.07-3.91-8.05-4.18-19.18-.67-26.63,1.78-3.83,3.24-5.84,6.71-9.23,3.63-3.59,3.83-3.55,4.54.55Z"/>
      <path class="cls-1" d="M61.04,149.96c-.99.71-3.08,2.8-4.66,4.66-1.54,1.85-3.39,3.99-4.02,4.73-2.29,2.6-3.16,4.26-2.68,5.13.51.95,1.38.99,4.97.24,6.94-1.46,13.69-1.93,23.75-1.7,11.68.32,16.18,1.03,22.65,3.59,3.28,1.3,4.3,1.3,5.29-.08,1.14-1.5,1.38-3.2,1.07-7.06-.28-3.71-1.03-5.05-3.43-6.31-1.34-.71-8.29-2.09-10.5-2.09-.75,0-3.59-.24-6.31-.55-9.31-1.1-17.56-1.85-20.95-1.82-3.16,0-3.47.08-5.17,1.26Z"/>
      <path class="cls-1" d="M76.9,167.6c-5.68.91-11.09,4.73-15.15,10.61-1.07,1.54-1.1,1.74-.51,2.37.36.36,1.42,1.1,2.45,1.62,1.74.91,1.82.91,2.56.24.43-.39.79-.87.79-1.07,0-1.03,4.73-6.23,5.64-6.23.08,0,.16,1.85.12,4.1,0,3.83.04,4.18,1.1,5.76,2.53,3.83,4.85,5.13,9.11,5.13s6.59-1.3,9.11-5.13c1.03-1.54,1.14-2.05,1.18-5.29.04-1.93.2-3.59.43-3.67.2-.08,1.54.95,2.96,2.25,1.42,1.3,2.84,2.37,3.16,2.37.28-.04,1.03-.47,1.66-.99,1.54-1.22,1.3-1.7-2.8-5.84-3-3.04-4.34-3.95-8.21-5.6-1.74-.75-10.46-1.14-13.61-.63Z"/>
      <path class="cls-1" d="M102.35,230.93c-.79.83-.99,1.38-.99,3.08,0,2.37.71,3.75,2.72,5.21,1.78,1.3,1.97,1.38,10.57,3.55,1.38.36,3.2.63,4.06.63h1.58v-10.5l-1.42-1.38-1.38-1.34-7.06-.12-7.1-.12-.99.99Z"/>
      <path class="cls-1" d="M130.17,230.26c-.32.12-1.07.67-1.66,1.22q-1.1,1.03-1.1,6.59c0,3.08.08,5.68.2,5.8s1.42-.12,2.88-.51c1.46-.43,3.43-.91,4.42-1.14,3.79-.79,7.46-2.25,8.92-3.43,2.21-1.85,2.8-5.6,1.18-7.5l-.95-1.1-6.67-.08c-3.63-.04-6.91.04-7.22.16Z"/>
      <path class="cls-1" d="M97.62,250.1c-6.43,1.3-9.19,2.68-11.48,5.72-1.62,2.13-2.13,3.87-2.13,7.18v2.8l1.7.28c.91.12,2.56.39,3.63.59,6.71,1.22,12.19,1.62,21.31,1.5l9.47-.12.12-9.39.08-9.35-9.55.04c-7.58.04-10.34.2-13.14.75Z"/>
      <path class="cls-1" d="M156.33,258.23l-2.41,1.74-13.14.08-13.18.12v7.5l11.56.12,11.56.08,2.64-1.03c1.46-.55,3.2-1.26,3.83-1.54,6.23-2.88,7.69-3.63,7.69-3.99,0-.28-.67-.95-1.46-1.58-.83-.63-1.74-1.34-2.01-1.62-.32-.32-1.03-.79-1.62-1.07-.99-.51-1.18-.47-3.47,1.18Z"/>
      <path class="cls-1" d="M127.57,281c-.12.32-.16,1.93-.08,3.67l.12,3.12,5.13.12c5.96.12,6.63,0,7.93-1.38,1.66-1.78,1.07-4.18-1.34-5.56-1.26-.71-11.48-.67-11.76.04Z"/>
    </g>
    <g>
      <path class="cls-1" d="M383.42,82.28c36.12,0,60.13,17.95,60.13,51.26,0,22.71-12.76,37.63-29.63,44.34l32.66,60.13h-35.25l-27.47-54.5h-22.49v54.5h-32.66V82.28h54.72ZM361.36,110.18v46.5h23.79c14.71,0,24.87-7.35,24.87-23.14s-10.6-23.36-25.74-23.36h-22.93Z"/>
      <path class="cls-1" d="M562.95,177.45c0,5.84-.65,11.03-.87,13.19h-70.94c1.3,14.71,12.54,23.14,30.06,23.14,15.36,0,31.36-4.54,37.42-8v27.47c-6.7,3.46-21.2,7.79-40.44,7.79-37.2,0-60.56-24.01-60.56-57.1s24.01-57.1,54.94-57.1c33.31,0,50.39,23.79,50.39,50.61ZM512.33,152.36c-12.98,0-20.33,9.95-21.2,21.63h40.88c.43-11.68-6.49-21.63-19.68-21.63Z"/>
      <path class="cls-1" d="M619.83,110.18v37.2h51.91v27.47h-51.91v63.15h-33.31V82.28h94.95v27.9h-61.64Z"/>
      <path class="cls-1" d="M696.4,134.19c6.06-2.81,20.55-7.35,39.58-7.35,33.31,0,49.96,16,49.96,43.04v68.13h-29.2l-.65-9.95c-.22-4.54.43-7.57.43-7.57h-.43c-2.81,6.49-13.63,20.55-33.52,20.55-18.6,0-34.39-10.81-34.39-32.87,0-26.39,26.82-39.36,65.75-33.96v-2.59c0-12.98-8.87-17.74-23.14-17.74s-27.25,4.76-34.39,9.3v-28.98ZM753.06,191.07c-24.22-3.89-34.39,3.68-34.39,13.84,0,6.92,4.76,11.46,12.33,11.46,12.54,0,22.06-11.46,22.06-25.31Z"/>
      <path class="cls-1" d="M866.4,212.7c12.98,0,24.66-6.06,28.77-8.87v29.2c-4.33,2.16-15.57,8-33.09,8-34.61,0-57.53-24.22-57.53-57.1s22.93-57.1,57.53-57.1c17.3,0,28.12,5.62,32.44,7.79v29.41c-6.06-4.33-16.87-8.87-28.12-8.87-17.09,0-29.2,11.25-29.2,28.77s11.68,28.77,29.2,28.77Z"/>
      <path class="cls-1" d="M1014.55,177.45c0,5.84-.65,11.03-.87,13.19h-70.94c1.3,14.71,12.54,23.14,30.06,23.14,15.36,0,31.36-4.54,37.42-8v27.47c-6.7,3.46-21.2,7.79-40.44,7.79-37.2,0-60.56-24.01-60.56-57.1s24.01-57.1,54.94-57.1c33.31,0,50.39,23.79,50.39,50.61ZM963.94,152.36c-12.98,0-20.33,9.95-21.2,21.63h40.88c.43-11.68-6.49-21.63-19.68-21.63Z"/>
      <path class="cls-1" d="M1095.66,79.9h1.3l75.7,158.1h-34.82l-12.54-27.47h-58.18l-12.11,27.47h-34.82l75.48-158.1ZM1115.34,187.18c-7.14-16.22-14.06-32.66-18.82-46.28-4.54,10.81-12.76,31.58-19.25,46.28h38.07Z"/>
      <path class="cls-1" d="M1197.1,238.01V82.28h33.31v155.73h-33.31Z"/>
    </g>
  </g>
</svg>