<?xml version="1.0" encoding="UTF-8"?>
<svg id="Calque_2" data-name="Calque 2" xmlns="http://www.w3.org/2000/svg" viewBox="0 0 322.42 439.91">
  <defs>
    <style>
      .cls-1 {
        fill: #000;
        stroke-width: 0px;
      }
    </style>
  </defs>
  <g id="Calque_1-2" data-name="Calque 1">
    <g>
      <path class="cls-1" d="M213.72,2.01c-6.69,2.98-8.52,3.61-17.25,5.91-6.74,1.78-17.2,3.66-23.73,4.29-1.67.16-3.29.42-3.5.57-.73.42-.57,119.38.16,119.38.31,0,1.31-.52,2.2-1.2,5.49-4.13,15.73-9.25,22.53-11.34,15.05-4.6,27.81-5.02,39.67-1.31,7.11,2.2,16.67,8.52,20.17,13.43l1.57,2.14v33.56l2.51,3.08c1.36,1.72,3.66,4.6,5.07,6.38,1.46,1.83,5.02,6.27,8,9.88,3.08,3.87,5.33,7.11,5.33,7.74,0,1.88-1.1,7.89-1.46,8.31-.21.21-5.75-6.01-12.39-13.75-10.04-11.76-12.23-14.06-13.38-14.06-.73,0-2.98.63-4.97,1.36s-4.34,1.52-5.23,1.78c-.94.21-1.93.57-2.3.78s-1.36.57-2.3.78c-.89.26-2.93.94-4.49,1.57-1.57.57-5.59,2.04-8.89,3.14-9.46,3.24-20.44,7.11-23,8.05-1.31.52-3.03,1.1-3.92,1.36-.84.21-2.98.94-4.7,1.57-1.72.57-3.82,1.31-4.7,1.57-4.7,1.41-15,5.12-15.42,5.54-.37.37-.47,14.69-.42,39.93l.16,39.41,1.31.63c1.25.57,3.61,1.25,7.84,2.25.99.26,3.71.99,6.01,1.62s5.02,1.36,6.01,1.62c.99.21,4.18,1.05,7.06,1.78s6.64,1.72,8.36,2.2c1.72.42,4.18,1.1,5.49,1.46,4.44,1.25,8.99,2.46,17.77,4.76,1.88.47,4.44,1.15,5.75,1.52s3.87,1.05,5.75,1.57c5.49,1.41,9.09,2.56,9.62,2.98.47.37.05,4.81-2.04,21.32-.42,3.29-.78,6.85-.78,7.84s-.31,4.65-.78,8.1c-.42,3.45-1.15,9.56-1.57,13.59-.47,4.02-1.2,9.62-1.57,12.39-.42,2.77-.78,5.96-.78,7.06,0,3.35-.89,5.44-3.5,7.94-1.41,1.36-5.54,5.59-9.25,9.46-20.02,21.06-25.82,26.34-30.63,28.17-6.43,2.35-8.62,2.72-18.97,3.03-7.21.21-10.45.52-10.82.94s-.47,3.61-.42,8.15l.16,7.53h9.67c9.62,0,16.36-.68,21.95-2.2,4.7-1.25,11.29-4.81,15.31-8.26,3.55-3.03,30.05-30.31,35.65-36.64.31-.37,2.87-3.03,5.8-6.01,6.17-6.38,10.77-11.76,12.07-14.16,1.2-2.3,2.77-7.16,2.77-8.78,0-.73.37-3.66.78-6.53,1.15-7.74,2.35-18.55,2.35-20.65,0-.99.37-4.39.78-7.58.42-3.14.94-7.27,1.15-9.09l.42-3.4,3.4-.99c1.88-.57,4.13-1.31,4.97-1.67.89-.37,2.61-1.1,3.92-1.62,7.21-2.93,18.35-12.44,23.1-19.81,5.38-8.31,7.11-12.91,8.52-23,.78-5.28.84-7.16.31-11.76-.84-8.21-1.41-11.71-2.09-12.96-.31-.57-.57-1.46-.57-1.93,0-1.25-4.44-10.24-6.79-13.85-1.15-1.67-3.97-5.07-6.32-7.53l-4.29-4.55.31-3.5c.16-1.93.57-5.75.89-8.47.37-3.14.47-9.04.26-15.94-.16-6.48-.1-11.29.16-11.71.63-.89,1.67-.31,1.67.99,0,1.15,2.56,5.64,4.86,8.57,2.2,2.77,6.69,6.22,7.27,5.64.31-.31.21-2.35-.31-5.38-1.36-8-1.15-10.14,2.93-30.78.89-4.49.89-18.19,0-22.21-3.4-15.05-14.53-27.81-27.44-31.41-1.52-.42-5.17-1.1-8.21-1.52-5.23-.78-11.03-.57-18.14.57-3.03.47-2.04-1.15,1.83-2.93,10.92-5.23,23.1-5.28,33.92-.21,7,3.29,13.96,8.89,17.93,14.43.94,1.41,1.93,2.51,2.2,2.51.68,0,.47-3.4-.42-6.95-3.5-14.06-9.2-24.09-19.5-34.39-6.22-6.17-12.28-10.51-19.97-14.16-8.73-4.18-16.36-6.27-25.61-7.06-5.91-.52-19.02,2.25-24.62,5.12-.52.26-1.46.47-2.09.47-1.1-.05-1.1-.1-.26-.57.47-.26,1.46-1.05,2.14-1.67s3.45-2.3,6.12-3.61c13.75-6.95,25.04-7.84,40.09-3.19,2.4.73,4.44,1.2,4.6,1.1.31-.37-2.82-3.61-7.11-7.27-8.73-7.47-21.8-14.37-33.97-17.88-8.26-2.4-16.93-3.35-22.74-2.51-3.97.57-8.73,2.4-13.17,5.02-3.14,1.88-2.87.57.42-2.35,8.57-7.53,11.76-12.49,13.01-20.38.26-1.57.63-3.4.84-4.08.47-1.62-.68-1.46-6.06.94ZM254.75,224.14c.73,1.2-5.12,10.04-9.51,14.43-6.95,6.85-14.84,10.14-24.15,10.14-7.11-.05-12.39-1.36-19.91-5.17-1.52-.73-5.91-2.25-8.73-2.98-1.52-.42-.37-1.93,3.24-4.39,7.27-4.91,8.62-5.75,12.02-7.32,10.14-4.76,12.33-5.12,30.94-5.17,9.56-.05,15.89.16,16.1.47ZM294.84,232.35c7.89,7.68,11.08,14.9,11.71,26.55.42,8.31-1.2,15.89-4.86,22.21-3.97,7-9.93,12.6-16.73,15.94-4.97,2.4-5.33,2.2-4.18-3.14.52-2.2.89-5.17.89-6.64,0-2.56.1-2.82,2.46-4.81,4.65-4.08,7.53-7.27,8.89-9.88,1.67-3.35,2.46-11.03,1.72-17.72-.42-4.08-.68-4.91-2.3-7.11-.99-1.36-2.4-2.98-3.14-3.61-1.57-1.41-1.57-1.15-.57-7.21.42-2.61.78-5.49.78-6.43,0-2.56,1.2-2.14,5.33,1.83Z"/>
      <path class="cls-1" d="M154.92,14.87c-3.87.47-15.89,2.82-20.91,4.13-7.21,1.88-9.72,2.61-13.07,3.76-1.99.73-4.34,1.46-5.23,1.72-3.24.84-12.7,5.17-16.99,7.79-.99.57-2.2,1.25-2.61,1.46-1.93.84-7.37,5.44-10.92,9.15l-3.87,4.08h-5.28c-5.12,0-12.81.99-16.15,2.04-8.78,2.82-12.07,4.18-16.57,7.06-7.37,4.65-13.85,11.66-16.99,18.35-1.72,3.66-3.4,10.45-3.35,13.85,0,2.72,1.57,11.03,2.56,13.33.84,2.04,2.2,5.07,3.87,8.68.73,1.62,1.36,3.19,1.36,3.5,0,1.2,1.15,1.2,2.87-.1.94-.73,1.99-1.36,2.2-1.36.26,0,.73-.26,1.1-.63.99-.99,4.23-1.99,10.04-3.08,8.15-1.52,17.35-.63,15.99,1.52-.21.37-.73.63-1.2.63-.42,0-1.52.31-2.4.68-.94.42-3.08,1.15-4.81,1.67-1.72.47-4.76,1.46-6.79,2.2-5.17,1.78-9.41,3.08-13.33,4.08-1.88.47-4.6,1.2-6.06,1.62s-3.03.73-3.45.73c-1.36,0-8.78,3.19-11.34,4.86-8.78,5.75-13.59,15-13.59,25.98s4.81,19.65,13.54,22.94c4.49,1.72,5.38,1.25,2.87-1.41-.68-.73-1.99-2.72-2.87-4.39-1.57-2.93-1.62-3.29-1.46-8.15.1-2.77.52-5.91.89-6.9,1.1-2.82,2.56-5.49,3.03-5.49.21,0,.57,1.15.73,2.61.42,3.66,1.46,10.24,2.35,14.9.42,2.2.73,4.65.73,5.49,0,.89.37,3.45.78,5.75s1.1,6.95,1.57,10.3c1.72,13.07,2.35,18.08,2.87,23.1l.52,5.12-5.17,5.44c-6.12,6.32-9.04,10.66-12.28,18.08-2.04,4.7-3.97,14.9-3.97,20.8,0,4.29,1.57,14.43,2.82,18.45,2.09,6.64,7.16,14.95,12.6,20.7,5.07,5.33,8.68,8.05,15.16,11.24,3.97,1.99,3.87,1.93,9.67,3.92l3.92,1.36.57,2.61c.37,1.46.68,3.61.68,4.86.05,1.25.42,4.55.84,7.32.84,5.8,1.93,14.37,3.14,24.93.94,8.1,2.04,13.28,3.35,15.68,2.14,3.97,5.54,7.89,16.99,19.6,3.5,3.61,8.1,8.41,10.24,10.71,11.6,12.49,25.19,26.24,28.12,28.43,3.92,2.98,9.04,5.59,12.81,6.59,6.69,1.83,16.78,2.93,25.51,2.77l8.57-.16v-73.17l-5.44-.16c-3.29-.1-5.64.05-6.06.42-.37.31-.78,2.2-.94,4.34-.57,7.53-3.19,13.54-8.31,18.87q-3.45,3.61-5.64,3.24c-7.94-1.25-18.4-6.9-25.04-13.48-9.62-9.51-13.12-17.09-14.16-30.73-.68-8.99-1.25-11.13-3.4-12.75-.99-.78-1.88-1.36-1.99-1.36-.57,0-9.36-6.17-12.7-8.89-8.83-7.21-13.54-16.99-14.9-30.84-.26-2.72-.68-6.64-.99-8.62-.73-5.23-1.93-14.63-2.82-21.95-.42-3.45-1.05-8.26-1.36-10.71-.37-2.46-.78-6.32-1.05-8.62s-.68-5.23-.99-6.53-.57-3.55-.57-4.97-.37-4.55-.78-6.9c-.37-2.4-.78-6.27-.84-8.62l-.1-4.34,7.21-10.71c3.97-5.91,8.31-12.49,9.62-14.63l2.35-3.92.21-26.03.21-26.03,2.93-3.19c3.08-3.29,9.36-8.26,12.91-10.19,8.83-4.7,9.2-4.76,9.83-1.2,1.25,7.27,5.17,16.88,9.36,23.21,1.15,1.78,3.82,4.81,5.85,6.85,7.74,7.53,14.63,11.08,26.66,13.64,4.7.99,14.58.78,18.61-.47l2.35-.73v-8.26l-2.77-1.41c-6.48-3.24-11.71-8.62-14.9-15.21-2.35-4.76-4.13-12.07-3.92-15.94l.16-2.98,1.83.16c2.67.21,10.45,2.77,17.14,5.64.94.42,1.99.63,2.25.47.26-.21.47-21.59.47-54.41V14.55l-1.41.05c-.84.05-2.14.21-3.03.26ZM38,233.08c.37,1.93.63,4.91.63,6.64,0,3.14-.05,3.19-2.82,6.01-3.35,3.35-3.97,4.97-4.34,12.02-.37,5.91.52,12.13,2.04,15.11,1.41,2.72,5.23,6.9,8.52,9.3l2.72,1.99.31,4.13c.21,2.25.47,5.44.68,7.16q.37,3.03-.89,2.72c-.68-.21-3.03-1.25-5.17-2.3-5.91-2.87-12.7-9.77-15.68-15.99-5.17-10.66-5.54-25.4-.89-35.28,2.35-5.07,4.29-7.74,8.89-12.23,4.81-4.76,5.07-4.7,6.01.73Z"/>
      <path class="cls-1" d="M80.86,198.63c-1.31.94-4.08,3.71-6.17,6.17-2.04,2.46-4.49,5.28-5.33,6.27-3.03,3.45-4.18,5.64-3.55,6.79.68,1.25,1.83,1.31,6.59.31,9.2-1.93,18.14-2.56,31.46-2.25,15.47.42,21.43,1.36,30,4.76,4.34,1.72,5.7,1.72,7-.1,1.52-1.99,1.83-4.23,1.41-9.36-.37-4.91-1.36-6.69-4.55-8.36-1.78-.94-10.98-2.77-13.9-2.77-.99,0-4.76-.31-8.36-.73-12.33-1.46-23.26-2.46-27.75-2.4-4.18,0-4.6.1-6.85,1.67Z"/>
      <path class="cls-1" d="M101.87,222c-7.53,1.2-14.69,6.27-20.07,14.06-1.41,2.04-1.46,2.3-.68,3.14.47.47,1.88,1.46,3.24,2.14,2.3,1.2,2.4,1.2,3.4.31.57-.52,1.05-1.15,1.05-1.41,0-1.36,6.27-8.26,7.47-8.26.1,0,.21,2.46.16,5.44,0,5.07.05,5.54,1.46,7.63,3.35,5.07,6.43,6.79,12.07,6.79s8.73-1.72,12.07-6.79c1.36-2.04,1.52-2.72,1.57-7,.05-2.56.26-4.76.57-4.86.26-.1,2.04,1.25,3.92,2.98s3.76,3.14,4.18,3.14c.37-.05,1.36-.63,2.2-1.31,2.04-1.62,1.72-2.25-3.71-7.74-3.97-4.02-5.75-5.23-10.87-7.42-2.3-.99-13.85-1.52-18.03-.84Z"/>
      <path class="cls-1" d="M135.58,305.89c-1.05,1.1-1.31,1.83-1.31,4.08,0,3.14.94,4.97,3.61,6.9,2.35,1.72,2.61,1.83,14.01,4.7,1.83.47,4.23.84,5.38.84h2.09v-13.9l-1.88-1.83-1.83-1.78-9.36-.16-9.41-.16-1.31,1.31Z"/>
      <path class="cls-1" d="M172.43,305c-.42.16-1.41.89-2.2,1.62q-1.46,1.36-1.46,8.73c0,4.08.1,7.53.26,7.68s1.88-.16,3.82-.68c1.93-.57,4.55-1.2,5.85-1.52,5.02-1.05,9.88-2.98,11.81-4.55,2.93-2.46,3.71-7.42,1.57-9.93l-1.25-1.46-8.83-.1c-4.81-.05-9.15.05-9.56.21Z"/>
      <path class="cls-1" d="M129.31,331.29c-8.52,1.72-12.18,3.55-15.21,7.58-2.14,2.82-2.82,5.12-2.82,9.51v3.71l2.25.37c1.2.16,3.4.52,4.81.78,8.89,1.62,16.15,2.14,28.22,1.99l12.54-.16.16-12.44.1-12.39-12.65.05c-10.04.05-13.69.26-17.4.99Z"/>
      <path class="cls-1" d="M207.08,342.05l-3.19,2.3-17.4.1-17.46.16v9.93l15.31.16,15.31.1,3.5-1.36c1.93-.73,4.23-1.67,5.07-2.04,8.26-3.82,10.19-4.81,10.19-5.28,0-.37-.89-1.25-1.93-2.09-1.1-.84-2.3-1.78-2.67-2.14-.42-.42-1.36-1.05-2.14-1.41-1.31-.68-1.57-.63-4.6,1.57Z"/>
      <path class="cls-1" d="M168.98,372.21c-.16.42-.21,2.56-.1,4.86l.16,4.13,6.79.16c7.89.16,8.78,0,10.51-1.83,2.2-2.35,1.41-5.54-1.78-7.37-1.67-.94-15.21-.89-15.58.05Z"/>
    </g>
  </g>
</svg>